<?xml version="1.0" encoding="iso-8859-1"?>
<!-- Generator: Adobe Illustrator 19.0.0, SVG Export Plug-In . SVG Version: 6.00 Build 0)  -->
<svg version="1.1" id="Layer_1" xmlns="http://www.w3.org/2000/svg" xmlns:xlink="http://www.w3.org/1999/xlink" x="0px" y="0px"
	 viewBox="0 0 512 512" style="enable-background:new 0 0 512 512;" xml:space="preserve">
<g transform="translate(1)">
	<g>
		<path style="fill:#FFE100;" d="M58.733,396.8c-5.12,0-8.533-3.413-8.533-8.533v-128c0-5.12,3.413-8.533,8.533-8.533
			s8.533,3.413,8.533,8.533v128C67.267,393.387,63.853,396.8,58.733,396.8z"/>
		<path style="fill:#FFE100;" d="M58.733,234.667c-5.12,0-8.533-3.413-8.533-8.533V64c0-5.12,3.413-8.533,8.533-8.533
			S67.267,58.88,67.267,64v162.133C67.267,231.253,63.853,234.667,58.733,234.667z"/>
		<path style="fill:#FFE100;" d="M127,396.8c-5.12,0-8.533-3.413-8.533-8.533v-128c0-5.12,3.413-8.533,8.533-8.533
			s8.533,3.413,8.533,8.533v128C135.533,393.387,132.12,396.8,127,396.8z"/>
		<path style="fill:#FFE100;" d="M127,234.667c-5.12,0-8.533-3.413-8.533-8.533V38.4c0-5.12,3.413-8.533,8.533-8.533
			s8.533,3.413,8.533,8.533v187.733C135.533,231.253,132.12,234.667,127,234.667z"/>
		<path style="fill:#FFE100;" d="M195.267,396.8c-5.12,0-8.533-3.413-8.533-8.533v-128c0-5.12,3.413-8.533,8.533-8.533
			c5.12,0,8.533,3.413,8.533,8.533v128C203.8,393.387,200.387,396.8,195.267,396.8z"/>
		<path style="fill:#FFE100;" d="M195.267,234.667c-5.12,0-8.533-3.413-8.533-8.533V64c0-5.12,3.413-8.533,8.533-8.533
			c5.12,0,8.533,3.413,8.533,8.533v162.133C203.8,231.253,200.387,234.667,195.267,234.667z"/>
		<path style="fill:#FFE100;" d="M263.533,396.8c-5.12,0-8.533-3.413-8.533-8.533v-128c0-5.12,3.413-8.533,8.533-8.533
			c5.12,0,8.533,3.413,8.533,8.533v128C272.067,393.387,268.653,396.8,263.533,396.8z"/>
		<path style="fill:#FFE100;" d="M263.533,234.667c-5.12,0-8.533-3.413-8.533-8.533V38.4c0-5.12,3.413-8.533,8.533-8.533
			c5.12,0,8.533,3.413,8.533,8.533v187.733C272.067,231.253,268.653,234.667,263.533,234.667z"/>
		<path style="fill:#FFE100;" d="M331.8,396.8c-5.12,0-8.533-3.413-8.533-8.533v-128c0-5.12,3.413-8.533,8.533-8.533
			s8.533,3.413,8.533,8.533v128C340.333,393.387,336.92,396.8,331.8,396.8z"/>
		<path style="fill:#FFE100;" d="M331.8,234.667c-5.12,0-8.533-3.413-8.533-8.533V64c0-5.12,3.413-8.533,8.533-8.533
			s8.533,3.413,8.533,8.533v162.133C340.333,231.253,336.92,234.667,331.8,234.667z"/>
		<path style="fill:#FFE100;" d="M400.067,396.8c-5.12,0-8.533-3.413-8.533-8.533v-128c0-5.12,3.413-8.533,8.533-8.533
			s8.533,3.413,8.533,8.533v128C408.6,393.387,405.187,396.8,400.067,396.8z"/>
		<path style="fill:#FFE100;" d="M400.067,234.667c-5.12,0-8.533-3.413-8.533-8.533V38.4c0-5.12,3.413-8.533,8.533-8.533
			S408.6,33.28,408.6,38.4v187.733C408.6,231.253,405.187,234.667,400.067,234.667z"/>
		<path style="fill:#FFE100;" d="M468.333,396.8c-5.12,0-8.533-3.413-8.533-8.533v-128c0-5.12,3.413-8.533,8.533-8.533
			c5.12,0,8.533,3.413,8.533,8.533v128C476.867,393.387,473.453,396.8,468.333,396.8z"/>
		<path style="fill:#FFE100;" d="M468.333,234.667c-5.12,0-8.533-3.413-8.533-8.533V64c0-5.12,3.413-8.533,8.533-8.533
			c5.12,0,8.533,3.413,8.533,8.533v162.133C476.867,231.253,473.453,234.667,468.333,234.667z"/>
		<path style="fill:#FFE100;" d="M468.333,140.8h-409.6c-5.12,0-8.533-3.413-8.533-8.533c0-5.12,3.413-8.533,8.533-8.533h409.6
			c5.12,0,8.533,3.413,8.533,8.533C476.867,137.387,473.453,140.8,468.333,140.8z"/>
		<path style="fill:#FFE100;" d="M468.333,337.067h-409.6c-5.12,0-8.533-3.413-8.533-8.533S53.613,320,58.733,320h409.6
			c5.12,0,8.533,3.413,8.533,8.533S473.453,337.067,468.333,337.067z"/>
		<path style="fill:#FFE100;" d="M67.267,234.667c0,9.387-7.68,17.067-17.067,17.067s-17.067-7.68-17.067-17.067
			c0-9.387,7.68-17.067,17.067-17.067S67.267,225.28,67.267,234.667"/>
		<path style="fill:#FFE100;" d="M135.533,234.667c0,9.387-7.68,17.067-17.067,17.067s-17.067-7.68-17.067-17.067
			c0-9.387,7.68-17.067,17.067-17.067S135.533,225.28,135.533,234.667"/>
		<path style="fill:#FFE100;" d="M203.8,234.667c0,9.387-7.68,17.067-17.067,17.067c-9.387,0-17.067-7.68-17.067-17.067
			c0-9.387,7.68-17.067,17.067-17.067C196.12,217.6,203.8,225.28,203.8,234.667"/>
		<path style="fill:#FFE100;" d="M272.067,234.667c0,9.387-7.68,17.067-17.067,17.067s-17.067-7.68-17.067-17.067
			c0-9.387,7.68-17.067,17.067-17.067S272.067,225.28,272.067,234.667"/>
		<path style="fill:#FFE100;" d="M340.333,234.667c0,9.387-7.68,17.067-17.067,17.067s-17.067-7.68-17.067-17.067
			c0-9.387,7.68-17.067,17.067-17.067S340.333,225.28,340.333,234.667"/>
		<path style="fill:#FFE100;" d="M408.6,234.667c0,9.387-7.68,17.067-17.067,17.067s-17.067-7.68-17.067-17.067
			c0-9.387,7.68-17.067,17.067-17.067S408.6,225.28,408.6,234.667"/>
		<path style="fill:#FFE100;" d="M476.867,234.667c0,9.387-7.68,17.067-17.067,17.067s-17.067-7.68-17.067-17.067
			c0-9.387,7.68-17.067,17.067-17.067S476.867,225.28,476.867,234.667"/>
	</g>
	<path style="fill:#FFA800;" d="M58.733,482.133h-38.4c-6.827,0-12.8-5.973-12.8-12.8v-38.4h51.2V482.133z"/>
	<polygon style="fill:#FFE100;" points="58.733,482.133 161.133,482.133 161.133,430.933 58.733,430.933 	"/>
	<g>
		<polygon style="fill:#FFA800;" points="161.133,482.133 255,482.133 255,430.933 161.133,430.933 		"/>
		<polygon style="fill:#FFA800;" points="348.867,482.133 451.267,482.133 451.267,430.933 348.867,430.933 		"/>
	</g>
	<polygon style="fill:#FFE100;" points="255,482.133 348.867,482.133 348.867,430.933 255,430.933 	"/>
	<path style="fill:#FFA800;" d="M109.933,430.933H7.533v-38.4c0-7.68,5.973-12.8,12.8-12.8h89.6V430.933z"/>
	<g>
		<polygon style="fill:#FFE100;" points="109.933,430.933 203.8,430.933 203.8,379.733 109.933,379.733 		"/>
		<polygon style="fill:#FFE100;" points="297.667,430.933 400.067,430.933 400.067,379.733 297.667,379.733 		"/>
	</g>
	<g>
		<polygon style="fill:#FFA800;" points="203.8,430.933 297.667,430.933 297.667,379.733 203.8,379.733 		"/>
		<path style="fill:#FFA800;" d="M502.467,430.933h-102.4v-51.2h89.6c6.827,0,12.8,5.973,12.8,12.8V430.933z"/>
	</g>
	<path style="fill:#FFE100;" d="M489.667,482.133h-38.4v-51.2h51.2v38.4C502.467,476.16,496.493,482.133,489.667,482.133"/>
	<path d="M50.2,388.267c-5.12,0-8.533-3.413-8.533-8.533v-128c0-5.12,3.413-8.533,8.533-8.533s8.533,3.413,8.533,8.533v128
		C58.733,384.853,55.32,388.267,50.2,388.267z"/>
	<path d="M50.2,226.133c-5.12,0-8.533-3.413-8.533-8.533V55.467c0-5.12,3.413-8.533,8.533-8.533s8.533,3.413,8.533,8.533V217.6
		C58.733,222.72,55.32,226.133,50.2,226.133z"/>
	<path d="M50.2,260.267c-14.507,0-25.6-11.093-25.6-25.6c0-14.507,11.093-25.6,25.6-25.6s25.6,11.093,25.6,25.6
		C75.8,249.173,64.707,260.267,50.2,260.267z M50.2,226.133c-5.12,0-8.533,3.413-8.533,8.533c0,5.12,3.413,8.533,8.533,8.533
		s8.533-3.413,8.533-8.533C58.733,229.547,55.32,226.133,50.2,226.133z"/>
	<path d="M118.467,388.267c-5.12,0-8.533-3.413-8.533-8.533v-128c0-5.12,3.413-8.533,8.533-8.533s8.533,3.413,8.533,8.533v128
		C127,384.853,123.587,388.267,118.467,388.267z"/>
	<path d="M118.467,226.133c-5.12,0-8.533-3.413-8.533-8.533V29.867c0-5.12,3.413-8.533,8.533-8.533S127,24.747,127,29.867V217.6
		C127,222.72,123.587,226.133,118.467,226.133z"/>
	<path d="M118.467,260.267c-14.507,0-25.6-11.093-25.6-25.6c0-14.507,11.093-25.6,25.6-25.6s25.6,11.093,25.6,25.6
		C144.067,249.173,132.973,260.267,118.467,260.267z M118.467,226.133c-5.12,0-8.533,3.413-8.533,8.533
		c0,5.12,3.413,8.533,8.533,8.533s8.533-3.413,8.533-8.533C127,229.547,123.587,226.133,118.467,226.133z"/>
	<path d="M186.733,388.267c-5.12,0-8.533-3.413-8.533-8.533v-128c0-5.12,3.413-8.533,8.533-8.533c5.12,0,8.533,3.413,8.533,8.533
		v128C195.267,384.853,191.853,388.267,186.733,388.267z"/>
	<path d="M186.733,226.133c-5.12,0-8.533-3.413-8.533-8.533V55.467c0-5.12,3.413-8.533,8.533-8.533c5.12,0,8.533,3.413,8.533,8.533
		V217.6C195.267,222.72,191.853,226.133,186.733,226.133z"/>
	<path d="M186.733,260.267c-14.507,0-25.6-11.093-25.6-25.6c0-14.507,11.093-25.6,25.6-25.6c14.507,0,25.6,11.093,25.6,25.6
		C212.333,249.173,201.24,260.267,186.733,260.267z M186.733,226.133c-5.12,0-8.533,3.413-8.533,8.533
		c0,5.12,3.413,8.533,8.533,8.533c5.12,0,8.533-3.413,8.533-8.533C195.267,229.547,191.853,226.133,186.733,226.133z"/>
	<path d="M255,388.267c-5.12,0-8.533-3.413-8.533-8.533v-128c0-5.12,3.413-8.533,8.533-8.533s8.533,3.413,8.533,8.533v128
		C263.533,384.853,260.12,388.267,255,388.267z"/>
	<path d="M255,226.133c-5.12,0-8.533-3.413-8.533-8.533V29.867c0-5.12,3.413-8.533,8.533-8.533s8.533,3.413,8.533,8.533V217.6
		C263.533,222.72,260.12,226.133,255,226.133z"/>
	<path d="M255,260.267c-14.507,0-25.6-11.093-25.6-25.6c0-14.507,11.093-25.6,25.6-25.6c14.507,0,25.6,11.093,25.6,25.6
		C280.6,249.173,269.507,260.267,255,260.267z M255,226.133c-5.12,0-8.533,3.413-8.533,8.533c0,5.12,3.413,8.533,8.533,8.533
		s8.533-3.413,8.533-8.533C263.533,229.547,260.12,226.133,255,226.133z"/>
	<path d="M323.267,388.267c-5.12,0-8.533-3.413-8.533-8.533v-128c0-5.12,3.413-8.533,8.533-8.533c5.12,0,8.533,3.413,8.533,8.533
		v128C331.8,384.853,328.387,388.267,323.267,388.267z"/>
	<path d="M323.267,226.133c-5.12,0-8.533-3.413-8.533-8.533V55.467c0-5.12,3.413-8.533,8.533-8.533c5.12,0,8.533,3.413,8.533,8.533
		V217.6C331.8,222.72,328.387,226.133,323.267,226.133z"/>
	<path d="M323.267,260.267c-14.507,0-25.6-11.093-25.6-25.6c0-14.507,11.093-25.6,25.6-25.6c14.507,0,25.6,11.093,25.6,25.6
		C348.867,249.173,337.773,260.267,323.267,260.267z M323.267,226.133c-5.12,0-8.533,3.413-8.533,8.533
		c0,5.12,3.413,8.533,8.533,8.533c5.12,0,8.533-3.413,8.533-8.533C331.8,229.547,328.387,226.133,323.267,226.133z"/>
	<path d="M391.533,388.267c-5.12,0-8.533-3.413-8.533-8.533v-128c0-5.12,3.413-8.533,8.533-8.533s8.533,3.413,8.533,8.533v128
		C400.067,384.853,396.653,388.267,391.533,388.267z"/>
	<path d="M391.533,226.133c-5.12,0-8.533-3.413-8.533-8.533V29.867c0-5.12,3.413-8.533,8.533-8.533s8.533,3.413,8.533,8.533V217.6
		C400.067,222.72,396.653,226.133,391.533,226.133z"/>
	<path d="M391.533,260.267c-14.507,0-25.6-11.093-25.6-25.6c0-14.507,11.093-25.6,25.6-25.6s25.6,11.093,25.6,25.6
		C417.133,249.173,406.04,260.267,391.533,260.267z M391.533,226.133c-5.12,0-8.533,3.413-8.533,8.533
		c0,5.12,3.413,8.533,8.533,8.533s8.533-3.413,8.533-8.533C400.067,229.547,396.653,226.133,391.533,226.133z"/>
	<path d="M459.8,388.267c-5.12,0-8.533-3.413-8.533-8.533v-128c0-5.12,3.413-8.533,8.533-8.533s8.533,3.413,8.533,8.533v128
		C468.333,384.853,464.92,388.267,459.8,388.267z"/>
	<path d="M459.8,226.133c-5.12,0-8.533-3.413-8.533-8.533V55.467c0-5.12,3.413-8.533,8.533-8.533s8.533,3.413,8.533,8.533V217.6
		C468.333,222.72,464.92,226.133,459.8,226.133z"/>
	<path d="M459.8,260.267c-14.507,0-25.6-11.093-25.6-25.6c0-14.507,11.093-25.6,25.6-25.6s25.6,11.093,25.6,25.6
		C485.4,249.173,474.307,260.267,459.8,260.267z M459.8,226.133c-5.12,0-8.533,3.413-8.533,8.533c0,5.12,3.413,8.533,8.533,8.533
		s8.533-3.413,8.533-8.533C468.333,229.547,464.92,226.133,459.8,226.133z"/>
	<path d="M101.4,243.2H67.267c-5.12,0-8.533-3.413-8.533-8.533c0-5.12,3.413-8.533,8.533-8.533H101.4
		c5.12,0,8.533,3.413,8.533,8.533C109.933,239.787,106.52,243.2,101.4,243.2z"/>
	<path d="M169.667,243.2h-34.133c-5.12,0-8.533-3.413-8.533-8.533c0-5.12,3.413-8.533,8.533-8.533h34.133
		c5.12,0,8.533,3.413,8.533,8.533C178.2,239.787,174.787,243.2,169.667,243.2z"/>
	<path d="M237.933,243.2H203.8c-5.12,0-8.533-3.413-8.533-8.533c0-5.12,3.413-8.533,8.533-8.533h34.133
		c5.12,0,8.533,3.413,8.533,8.533C246.467,239.787,243.053,243.2,237.933,243.2z"/>
	<path d="M306.2,243.2h-34.133c-5.12,0-8.533-3.413-8.533-8.533c0-5.12,3.413-8.533,8.533-8.533H306.2
		c5.12,0,8.533,3.413,8.533,8.533C314.733,239.787,311.32,243.2,306.2,243.2z"/>
	<path d="M374.467,243.2h-34.133c-5.12,0-8.533-3.413-8.533-8.533c0-5.12,3.413-8.533,8.533-8.533h34.133
		c5.12,0,8.533,3.413,8.533,8.533C383,239.787,379.587,243.2,374.467,243.2z"/>
	<path d="M442.733,243.2H408.6c-5.12,0-8.533-3.413-8.533-8.533c0-5.12,3.413-8.533,8.533-8.533h34.133
		c5.12,0,8.533,3.413,8.533,8.533C451.267,239.787,447.853,243.2,442.733,243.2z"/>
	<path d="M459.8,132.267H50.2c-5.12,0-8.533-3.413-8.533-8.533c0-5.12,3.413-8.533,8.533-8.533h409.6
		c5.12,0,8.533,3.413,8.533,8.533C468.333,128.853,464.92,132.267,459.8,132.267z"/>
	<path d="M459.8,328.533H50.2c-5.12,0-8.533-3.413-8.533-8.533c0-5.12,3.413-8.533,8.533-8.533h409.6
		c5.12,0,8.533,3.413,8.533,8.533C468.333,325.12,464.92,328.533,459.8,328.533z"/>
	<path d="M67.267,490.667H20.333C8.387,490.667-1,481.28-1,469.333V422.4h68.267V490.667z M16.067,439.467v29.867
		c0,2.56,1.707,4.267,4.267,4.267H50.2v-34.133H16.067z"/>
	<path d="M169.667,490.667H50.2V422.4h119.467V490.667z M67.267,473.6H152.6v-34.133H67.267V473.6z"/>
	<path d="M263.533,490.667H152.6V422.4h110.933V490.667z M169.667,473.6h76.8v-34.133h-76.8V473.6z"/>
	<path d="M459.8,490.667H340.333V422.4H459.8V490.667z M357.4,473.6h85.333v-34.133H357.4V473.6z"/>
	<path d="M357.4,490.667H246.467V422.4H357.4V490.667z M263.533,473.6h76.8v-34.133h-76.8V473.6z"/>
	<path d="M118.467,439.467H-1v-46.933c0-11.947,9.387-21.333,21.333-21.333h98.133V439.467z M16.067,422.4H101.4v-34.133H20.333
		c-2.56,0-4.267,1.707-4.267,4.267V422.4z"/>
	<path d="M212.333,439.467H101.4V371.2h110.933V439.467z M118.467,422.4h76.8v-34.133h-76.8V422.4z"/>
	<path d="M408.6,439.467H289.133V371.2H408.6V439.467z M306.2,422.4h85.333v-34.133H306.2V422.4z"/>
	<path d="M306.2,439.467H195.267V371.2H306.2V439.467z M212.333,422.4h76.8v-34.133h-76.8V422.4z"/>
	<path d="M511,439.467H391.533V371.2h98.133c11.947,0,21.333,9.387,21.333,21.333V439.467z M408.6,422.4h85.333v-29.867
		c0-2.56-1.707-4.267-4.267-4.267H408.6V422.4z"/>
	<path d="M489.667,490.667h-46.933V422.4H511v46.933C511,481.28,501.613,490.667,489.667,490.667z M459.8,473.6h29.867
		c2.56,0,4.267-1.707,4.267-4.267v-29.867H459.8V473.6z"/>
</g>
<g>
</g>
<g>
</g>
<g>
</g>
<g>
</g>
<g>
</g>
<g>
</g>
<g>
</g>
<g>
</g>
<g>
</g>
<g>
</g>
<g>
</g>
<g>
</g>
<g>
</g>
<g>
</g>
<g>
</g>
</svg>
